<svg xmlns="http://www.w3.org/2000/svg" xmlns:xlink="http://www.w3.org/1999/xlink" viewBox="0 0 840.92 577.74"><defs><style>.cls-1,.cls-7{fill:none;}.cls-2{isolation:isolate;}.cls-3{fill:#6d6e71;}.cls-4{fill:#e6e7e8;}.cls-5,.cls-6{fill:#231f20;}.cls-6{opacity:0.17;}.cls-7{stroke:#414042;stroke-miterlimit:10;stroke-width:6px;}.cls-8{mix-blend-mode:hard-light;opacity:0.33;}.cls-9{fill:#fff;}.cls-10{clip-path:url(#clip-path);}</style><clipPath id="clip-path"><defs>
            <pattern id="camo" patternUnits="userSpaceOnUse" x="0" y="0" width="1112" height="100%">
                <image xlink:href="/Images/Camo/Covert.avif" width="100%" height="100%" preserveAspectRatio="xMinYMid slice" id="camoImg"></image>
            </pattern>
                                    <pattern id="Color_0-Camo" patternUnits="userSpaceOnUse" x="0" y="0" width="1112" height="100%">
                <image xlink:href="/Images/Camo/Covert.avif" width="100%" height="100%" preserveAspectRatio="xMinYMid slice" id="camoImg"></image>
            </pattern>
                        <pattern id="Color_1-Camo" patternUnits="userSpaceOnUse" x="0" y="0" width="1112" height="100%">
                <image xlink:href="/Images/Camo/Covert.avif" width="100%" height="100%" preserveAspectRatio="xMinYMid slice" id="camoImg"></image>
            </pattern>
                        <pattern id="Color_2-Camo" patternUnits="userSpaceOnUse" x="0" y="0" width="1112" height="100%">
                <image xlink:href="/Images/Camo/Covert.avif" width="100%" height="100%" preserveAspectRatio="xMinYMid slice" id="camoImg"></image>
            </pattern>
        </defs><rect class="cls-1" x="711.59" y="497.63" width="88.29" height="32.75"/></clipPath></defs><g class="cls-2"><g id="Layer_2" data-name="Layer 2"><g id="Color_0"><rect class="cls-3" x="3" y="4.08" width="834.92" height="553.97" rx="30.16"/></g><g id="Color_1"><rect class="cls-4" x="125.79" width="76.29" height="557.83"/><rect class="cls-4" x="253.61" width="121.87" height="558.05"/></g><g id="Color_2"><rect class="cls-5" x="202.08" y="4.08" width="51.52" height="552.98"/></g><g id="Border"><rect class="cls-6" x="425" y="3.09" width="9.07" height="553.97"/><rect class="cls-7" x="3" y="4.08" width="834.92" height="553.97" rx="30.16"/></g><g id="Numbers"><image class="cls-8" width="195" height="501" transform="translate(607.78 265.65) scale(0.24)" xlink:href="Asset%2051.png"/><path class="cls-9" d="M634.12,311.33h-5v-26.4l-8.65,2.94v-3.6L633.33,280h.79Z"/><image class="cls-8" width="195" height="501" transform="translate(291.7 266.13) scale(0.24)" xlink:href="Asset%2052.png"/><path class="cls-9" d="M326.16,311.77h-23v-2.85l11.72-11.77a25.79,25.79,0,0,0,3.69-4.47,7.1,7.1,0,0,0,1-3.69,5.48,5.48,0,0,0-1.52-4,5.41,5.41,0,0,0-4-1.55,6.72,6.72,0,0,0-4.84,1.64,6.24,6.24,0,0,0-1.71,4.72h-5a8.69,8.69,0,0,1,3.1-6.95c2.08-1.77,4.89-2.66,8.45-2.66a12,12,0,0,1,7.75,2.28,7.41,7.41,0,0,1,2.82,6.07q0,4.62-6.36,10.94l-9.15,9.08h17Z"/><image class="cls-8" width="195" height="501" transform="translate(205.3 265.65) scale(0.24)" xlink:href="Asset%2053.png"/><path class="cls-9" d="M223.22,293.82h3.19a7,7,0,0,0,4.75-1.44,4.89,4.89,0,0,0,1.67-3.91c0-3.66-1.87-5.48-5.6-5.48a5.82,5.82,0,0,0-4.21,1.47,5.19,5.19,0,0,0-1.52,3.88h-5a7.62,7.62,0,0,1,3-6.18A13.75,13.75,0,0,1,235,282a7.91,7.91,0,0,1,2.85,6.52,6.38,6.38,0,0,1-1.48,4,8.67,8.67,0,0,1-3.86,2.75q5.82,1.62,5.82,7.3a8.11,8.11,0,0,1-3.06,6.65,14.34,14.34,0,0,1-15.91.12,7.56,7.56,0,0,1-3-6.3h5a5.14,5.14,0,0,0,1.58,3.95,6.12,6.12,0,0,0,4.33,1.47,6.56,6.56,0,0,0,4.45-1.44,5.47,5.47,0,0,0,1.65-4.37q0-5.67-7.09-5.67h-3Z"/><image class="cls-8" width="195" height="501" transform="translate(144.58 265.65) scale(0.24)" xlink:href="Asset%2054.png"/><path class="cls-9" d="M179,311.33H156v-2.85l11.73-11.77a26.18,26.18,0,0,0,3.69-4.46,7.16,7.16,0,0,0,1-3.7,5.47,5.47,0,0,0-1.53-4,5.36,5.36,0,0,0-4-1.54,6.72,6.72,0,0,0-4.84,1.63,6.25,6.25,0,0,0-1.71,4.72h-5a8.71,8.71,0,0,1,3.11-6.95q3.1-2.65,8.45-2.66,4.92,0,7.74,2.28a7.4,7.4,0,0,1,2.83,6.07q0,4.62-6.36,10.94l-9.15,9.08h17Z"/><image class="cls-8" width="195" height="501" transform="translate(46.9 265.65) scale(0.24)" xlink:href="Asset%2055.png"/><path class="cls-9" d="M73.2,311.33h-5v-26.4l-8.64,2.94v-3.6L72.41,280h.79Z"/></g><g id="Logo"><g class="cls-10"><image width="1280" height="1280" transform="translate(700.71 467.68) scale(0.09)" xlink:href="../../../../Downloads/ORG%20-Blk_Ylw%20Logo.jpg"/></g></g></g></g></svg>