<svg xmlns="http://www.w3.org/2000/svg" xmlns:xlink="http://www.w3.org/1999/xlink" viewBox="0 0 840.92 576.66"><defs><style>.cls-1,.cls-4{fill:none;}.cls-2{isolation:isolate;}.cls-3{fill:#6d6e71;}.cls-4{stroke:#414042;stroke-miterlimit:10;stroke-width:6px;}.cls-5{fill:#231f20;opacity:0.17;}.cls-6{mix-blend-mode:hard-light;opacity:0.33;}.cls-7{fill:#fff;}.cls-8{clip-path:url(#clip-path);}</style><clipPath id="clip-path"><defs>
            <pattern id="camo" patternUnits="userSpaceOnUse" x="0" y="0" width="1112" height="100%">
                <image xlink:href="/Images/Camo/Covert.avif" width="100%" height="100%" preserveAspectRatio="xMinYMid slice" id="camoImg"></image>
            </pattern>
                                    <pattern id="MainColor-Camo" patternUnits="userSpaceOnUse" x="0" y="0" width="1112" height="100%">
                <image xlink:href="/Images/Camo/Covert.avif" width="100%" height="100%" preserveAspectRatio="xMinYMid slice" id="camoImg"></image>
            </pattern>
                        <pattern id="Color3-Camo" patternUnits="userSpaceOnUse" x="0" y="0" width="1112" height="100%">
                <image xlink:href="/Images/Camo/Covert.avif" width="100%" height="100%" preserveAspectRatio="xMinYMid slice" id="camoImg"></image>
            </pattern>
                        <pattern id="Color2-Camo" patternUnits="userSpaceOnUse" x="0" y="0" width="1112" height="100%">
                <image xlink:href="/Images/Camo/Covert.avif" width="100%" height="100%" preserveAspectRatio="xMinYMid slice" id="camoImg"></image>
            </pattern>
        </defs><rect class="cls-1" x="711.59" y="496.55" width="88.29" height="32.75"/></clipPath></defs><g class="cls-2"><g id="Layer_2" data-name="Layer 2"><g id="MainColor"><rect class="cls-3" x="3" y="3" width="834.92" height="553.97" rx="30.16"/></g><g id="Border"><rect class="cls-4" x="3" y="3" width="834.92" height="553.97" rx="30.16"/><rect class="cls-5" x="425" y="2.01" width="9.07" height="553.97"/></g><g id="Numbers"><image class="cls-6" width="195" height="501" transform="translate(622.82 224.97) scale(0.24)" xlink:href="Asset%2061.png"/><path class="cls-7" d="M649.24,270.65h-5v-26.4l-8.65,2.93v-3.59l12.89-4.26h.79Z"/></g><g id="Logo"><g class="cls-8"><image width="1280" height="1280" transform="translate(700.71 466.6) scale(0.09)" xlink:href="../../../../Downloads/ORG%20-Blk_Ylw%20Logo.jpg"/></g></g></g></g></svg>