<svg xmlns="http://www.w3.org/2000/svg" xmlns:xlink="http://www.w3.org/1999/xlink" viewBox="0 0 840.92 576.66"><defs><style>.cls-1,.cls-7{fill:none;}.cls-2{isolation:isolate;}.cls-3{fill:#6d6e71;}.cls-4{fill:#e6e7e8;}.cls-5,.cls-6{fill:#231f20;}.cls-6{opacity:0.17;}.cls-7{stroke:#414042;stroke-miterlimit:10;stroke-width:6px;}.cls-8{mix-blend-mode:hard-light;opacity:0.33;}.cls-9{fill:#fff;}.cls-10{clip-path:url(#clip-path);}</style><clipPath id="clip-path"><defs>
            <pattern id="camo" patternUnits="userSpaceOnUse" x="0" y="0" width="1112" height="100%">
                <image xlink:href="/Images/Camo/Covert.avif" width="100%" height="100%" preserveAspectRatio="xMinYMid slice" id="camoImg"></image>
            </pattern>
                        <pattern id="Color_0-Camo" patternUnits="userSpaceOnUse" x="0" y="0" width="1112" height="100%">
                <image xlink:href="/Images/Camo/Covert.avif" width="100%" height="100%" preserveAspectRatio="xMinYMid slice" id="camoImg"></image>
            </pattern>
                        <pattern id="Color_2-Camo" patternUnits="userSpaceOnUse" x="0" y="0" width="1112" height="100%">
                <image xlink:href="/Images/Camo/Covert.avif" width="100%" height="100%" preserveAspectRatio="xMinYMid slice" id="camoImg"></image>
            </pattern>
                        <pattern id="Color_3-Camo" patternUnits="userSpaceOnUse" x="0" y="0" width="1112" height="100%">
                <image xlink:href="/Images/Camo/Covert.avif" width="100%" height="100%" preserveAspectRatio="xMinYMid slice" id="camoImg"></image>
            </pattern>
        </defs><rect class="cls-1" x="711.59" y="496.55" width="88.29" height="32.75"/></clipPath></defs><g class="cls-2"><g id="Layer_2" data-name="Layer 2"><g id="Color_0"><rect class="cls-3" x="3" y="3" width="834.92" height="553.97" rx="30.16"/></g><g id="Color_1"><polygon class="cls-4" points="546.45 556.97 837.92 350.93 837.92 144.57 247.22 556.97 546.45 556.97"/></g><g id="Color_2"><path class="cls-5" d="M837.92,350.93,439.44,556H810.65a27.27,27.27,0,0,0,27.27-27.28Z"/></g><g id="Border"><rect class="cls-6" x="425" y="2.01" width="9.07" height="553.97"/><rect class="cls-7" x="3" y="3" width="834.92" height="553.97" rx="30.16"/></g><g id="Numbers"><image class="cls-8" width="195" height="501" transform="translate(741.46 409.77) scale(0.24)" xlink:href="Asset%2021.png"/><path class="cls-9" d="M759.26,437.86h3.19a7,7,0,0,0,4.75-1.44,4.89,4.89,0,0,0,1.67-3.92q0-5.47-5.6-5.48a5.82,5.82,0,0,0-4.21,1.48,5.16,5.16,0,0,0-1.53,3.88h-5a7.59,7.59,0,0,1,3-6.18,11.87,11.87,0,0,1,7.7-2.43,12,12,0,0,1,7.72,2.3,7.91,7.91,0,0,1,2.85,6.52,6.34,6.34,0,0,1-1.48,4,8.69,8.69,0,0,1-3.86,2.76q5.82,1.62,5.82,7.3a8.08,8.08,0,0,1-3.07,6.64,12.35,12.35,0,0,1-8,2.48,12.47,12.47,0,0,1-7.89-2.35,7.56,7.56,0,0,1-3-6.3h5a5.12,5.12,0,0,0,1.58,4,6.14,6.14,0,0,0,4.32,1.46,6.52,6.52,0,0,0,4.45-1.43,5.46,5.46,0,0,0,1.66-4.37q0-5.67-7.1-5.67h-3Z"/><image class="cls-8" width="195" height="501" transform="translate(675.7 305.37) scale(0.24)" xlink:href="Asset%2022.png"/><path class="cls-9" d="M710.22,350.93h-23v-2.85L699,336.31a26.18,26.18,0,0,0,3.69-4.46,7.26,7.26,0,0,0,1-3.7,5.47,5.47,0,0,0-1.53-4,5.36,5.36,0,0,0-4-1.54,6.7,6.7,0,0,0-4.85,1.64,6.22,6.22,0,0,0-1.71,4.72h-5a8.72,8.72,0,0,1,3.11-7q3.11-2.65,8.45-2.66,4.92,0,7.74,2.28a7.4,7.4,0,0,1,2.83,6.07q0,4.63-6.36,10.94l-9.16,9.08h17Z"/><image class="cls-8" width="195" height="501" transform="translate(571.06 134.97) scale(0.24)" xlink:href="Asset%2023.png"/><path class="cls-9" d="M597.35,180.48h-5V154.09L583.67,157v-3.6l12.89-4.26h.79Z"/></g><g id="Logo"><g class="cls-10"><image width="1280" height="1280" transform="translate(700.71 466.6) scale(0.09)" xlink:href="../../../../Downloads/ORG%20-Blk_Ylw%20Logo.jpg"/></g></g></g></g></svg>