<svg xmlns="http://www.w3.org/2000/svg" xmlns:xlink="http://www.w3.org/1999/xlink" viewBox="0 0 840.92 576.66"><defs><style>.cls-1,.cls-6{fill:none;}.cls-2{isolation:isolate;}.cls-3{fill:#6d6e71;}.cls-4{fill:#e6e7e8;}.cls-5,.cls-7{fill:#231f20;}.cls-6{stroke:#414042;stroke-miterlimit:10;stroke-width:6px;}.cls-7{opacity:0.17;}.cls-8{mix-blend-mode:hard-light;opacity:0.33;}.cls-9{fill:#fff;}.cls-10{clip-path:url(#clip-path);}</style><clipPath id="clip-path"><defs>
            <pattern id="camo" patternUnits="userSpaceOnUse" x="0" y="0" width="1112" height="100%">
                <image xlink:href="/Images/Camo/Covert.avif" width="100%" height="100%" preserveAspectRatio="xMinYMid slice" id="camoImg"></image>
            </pattern>
                                    <pattern id="MainColor-Camo" patternUnits="userSpaceOnUse" x="0" y="0" width="1112" height="100%">
                <image xlink:href="/Images/Camo/Covert.avif" width="100%" height="100%" preserveAspectRatio="xMinYMid slice" id="camoImg"></image>
            </pattern>
                        <pattern id="Color3-Camo" patternUnits="userSpaceOnUse" x="0" y="0" width="1112" height="100%">
                <image xlink:href="/Images/Camo/Covert.avif" width="100%" height="100%" preserveAspectRatio="xMinYMid slice" id="camoImg"></image>
            </pattern>
                        <pattern id="Color2-Camo" patternUnits="userSpaceOnUse" x="0" y="0" width="1112" height="100%">
                <image xlink:href="/Images/Camo/Covert.avif" width="100%" height="100%" preserveAspectRatio="xMinYMid slice" id="camoImg"></image>
            </pattern>
        </defs><rect class="cls-1" x="711.59" y="496.55" width="88.29" height="32.75"/></clipPath></defs><g class="cls-2"><g id="Layer_2" data-name="Layer 2"><g id="MainColor"><rect class="cls-3" x="3" y="3" width="834.92" height="553.97" rx="30.16"/></g><g id="Color2"><polygon class="cls-4" points="49.26 2.01 129.94 3 837.92 239.34 837.92 458.4 49.26 2.01"/><polygon class="cls-4" points="3 50.44 3 109.2 396.47 555.98 663.99 555.98 3 50.44"/></g><g id="Color3"><path class="cls-5" d="M49.26,2H30.43A27.43,27.43,0,0,0,3,29.44v21L664,556l150.19,1.79a23.46,23.46,0,0,0,23.74-23.46V458.4Z"/></g><g id="Border"><rect class="cls-6" x="3" y="3" width="834.92" height="553.97" rx="30.16"/><rect class="cls-7" x="425" y="2.01" width="9.07" height="553.97"/></g><g id="Numbers"><image class="cls-8" width="195" height="501" transform="translate(610.5 63.45) scale(0.24)" xlink:href="Asset%2041.png"/><path class="cls-9" d="M636.91,109.2h-5V82.8l-8.65,2.93V82.14l12.89-4.26h.79Z"/><image class="cls-8" width="195" height="501" transform="translate(540.18 184.65) scale(0.24)" xlink:href="Asset%2042.png"/><path class="cls-9" d="M574.69,230.21h-23v-2.85l11.72-11.78a26.18,26.18,0,0,0,3.69-4.46,7.1,7.1,0,0,0,1-3.69,5.51,5.51,0,0,0-1.52-4,5.44,5.44,0,0,0-4-1.54,6.72,6.72,0,0,0-4.84,1.64,6.24,6.24,0,0,0-1.71,4.72h-5a8.71,8.71,0,0,1,3.1-7c2.08-1.77,4.89-2.65,8.45-2.65a12,12,0,0,1,7.75,2.28,7.41,7.41,0,0,1,2.82,6.07q0,4.62-6.36,10.94L557.65,227h17Z"/><image class="cls-8" width="195" height="501" transform="translate(456.66 296.25) scale(0.24)" xlink:href="Asset%2043.png"/><path class="cls-9" d="M474.51,324.35h3.19a7.06,7.06,0,0,0,4.75-1.44,4.88,4.88,0,0,0,1.66-3.91c0-3.66-1.86-5.48-5.59-5.48a5.82,5.82,0,0,0-4.21,1.47,5.16,5.16,0,0,0-1.53,3.88h-5a7.59,7.59,0,0,1,3-6.18,13.73,13.73,0,0,1,15.41-.13,7.89,7.89,0,0,1,2.86,6.52,6.4,6.4,0,0,1-1.49,4,8.64,8.64,0,0,1-3.85,2.75q5.82,1.62,5.82,7.3a8.09,8.09,0,0,1-3.07,6.65,14.34,14.34,0,0,1-15.91.12,7.58,7.58,0,0,1-3-6.3h5a5.1,5.1,0,0,0,1.58,3.95,6.08,6.08,0,0,0,4.32,1.47,6.53,6.53,0,0,0,4.45-1.44,5.47,5.47,0,0,0,1.66-4.37q0-5.67-7.1-5.67h-3Z"/><image class="cls-8" width="195" height="501" transform="translate(328.98 364.65) scale(0.24)" xlink:href="Asset%2044.png"/><path class="cls-9" d="M363.47,410.22h-23v-2.85l11.73-11.77a25.79,25.79,0,0,0,3.69-4.47,7.1,7.1,0,0,0,1-3.69,5.45,5.45,0,0,0-1.53-4,5.36,5.36,0,0,0-4-1.54,6.76,6.76,0,0,0-4.85,1.63,6.28,6.28,0,0,0-1.7,4.72h-5a8.7,8.7,0,0,1,3.11-7q3.1-2.65,8.45-2.66,4.92,0,7.74,2.28a7.39,7.39,0,0,1,2.83,6.07q0,4.62-6.36,10.94L346.43,407h17Z"/><image class="cls-8" width="195" height="501" transform="translate(111.78 412.89) scale(0.24)" xlink:href="Asset%2045.png"/><path class="cls-9" d="M138.19,458.4h-5V432l-8.65,2.93v-3.6l12.89-4.26h.79Z"/></g><g id="Logo"><g class="cls-10"><image width="1280" height="1280" transform="translate(700.71 466.6) scale(0.09)" xlink:href="../../../../Downloads/ORG%20-Blk_Ylw%20Logo.jpg"/></g></g></g></g></svg>