<svg xmlns="http://www.w3.org/2000/svg" xmlns:xlink="http://www.w3.org/1999/xlink" viewBox="0 0 840.92 576.66"><defs><style>.cls-1,.cls-6{fill:none;}.cls-2{isolation:isolate;}.cls-3{fill:#6d6e71;}.cls-4{fill:#e6e7e8;}.cls-5,.cls-7{fill:#231f20;}.cls-6{stroke:#414042;stroke-miterlimit:10;stroke-width:6px;}.cls-7{opacity:0.17;}.cls-8{mix-blend-mode:hard-light;opacity:0.33;}.cls-9{fill:#fff;}.cls-10{clip-path:url(#clip-path);}</style><clipPath id="clip-path"><defs>
            <pattern id="camo" patternUnits="userSpaceOnUse" x="0" y="0" width="1112" height="100%">
                <image xlink:href="/Images/Camo/Covert.avif" width="100%" height="100%" preserveAspectRatio="xMinYMid slice" id="camoImg"></image>
            </pattern>
                                    <pattern id="MainColor-Camo" patternUnits="userSpaceOnUse" x="0" y="0" width="1112" height="100%">
                <image xlink:href="/Images/Camo/Covert.avif" width="100%" height="100%" preserveAspectRatio="xMinYMid slice" id="camoImg"></image>
            </pattern>
                        <pattern id="Color3-Camo" patternUnits="userSpaceOnUse" x="0" y="0" width="1112" height="100%">
                <image xlink:href="/Images/Camo/Covert.avif" width="100%" height="100%" preserveAspectRatio="xMinYMid slice" id="camoImg"></image>
            </pattern>
                        <pattern id="Color2-Camo" patternUnits="userSpaceOnUse" x="0" y="0" width="1112" height="100%">
                <image xlink:href="/Images/Camo/Covert.avif" width="100%" height="100%" preserveAspectRatio="xMinYMid slice" id="camoImg"></image>
            </pattern>
        </defs><rect class="cls-1" x="711.59" y="496.55" width="88.29" height="32.75"/></clipPath></defs><g class="cls-2"><g id="Layer_2" data-name="Layer 2"><g id="MainColor"><rect class="cls-3" x="3" y="3" width="834.92" height="553.97" rx="30.16"/></g><g id="Color2"><polygon class="cls-4" points="624.54 555.36 837.92 326.88 837.92 109.2 445.19 556.03 624.54 555.36"/><path class="cls-4" d="M191.55,2,5.7,216.38,5.08,30.27A27.27,27.27,0,0,1,32.35,3Z"/></g><g id="Color3"><polygon class="cls-5" points="3 199.5 183.63 3 409.53 3 3 385.34 3 199.5"/><path class="cls-5" d="M837.92,326.88,624.54,555.35l186.11.63a27.27,27.27,0,0,0,27.27-27.28Z"/></g><g id="Border"><rect class="cls-6" x="3" y="3" width="834.92" height="553.97" rx="30.16"/><rect class="cls-7" x="425" y="2.01" width="9.07" height="553.97"/></g><g id="Numbers"><image class="cls-8" width="195" height="501" transform="translate(42.26 31.05) scale(0.24)" xlink:href="Asset%2031.png"/><path class="cls-9" d="M76.57,76.62h-23V73.78L65.3,62A26.18,26.18,0,0,0,69,57.54a7.19,7.19,0,0,0,1-3.69,5.47,5.47,0,0,0-1.53-4,5.38,5.38,0,0,0-4-1.54,6.75,6.75,0,0,0-4.85,1.64,6.22,6.22,0,0,0-1.71,4.72h-5a8.72,8.72,0,0,1,3.11-7Q59.14,45,64.48,45q4.92,0,7.74,2.28a7.42,7.42,0,0,1,2.83,6.07q0,4.62-6.36,10.93l-9.16,9.08h17Z"/><image class="cls-8" width="195" height="501" transform="translate(108.26 111.21) scale(0.24)" xlink:href="Asset%2032.png"/><path class="cls-9" d="M126.14,139.36h3.19a7.08,7.08,0,0,0,4.75-1.44,4.88,4.88,0,0,0,1.66-3.91q0-5.49-5.59-5.49a5.81,5.81,0,0,0-4.21,1.48,5.16,5.16,0,0,0-1.53,3.88h-5a7.59,7.59,0,0,1,3-6.18,13.73,13.73,0,0,1,15.41-.13,7.89,7.89,0,0,1,2.86,6.52,6.4,6.4,0,0,1-1.49,4,8.64,8.64,0,0,1-3.85,2.75q5.82,1.62,5.82,7.3a8.06,8.06,0,0,1-3.07,6.64,14.31,14.31,0,0,1-15.91.13,7.58,7.58,0,0,1-3-6.3h5a5.12,5.12,0,0,0,1.59,3.95,6.08,6.08,0,0,0,4.32,1.46,6.54,6.54,0,0,0,4.45-1.43,5.48,5.48,0,0,0,1.65-4.37q0-5.67-7.09-5.67h-3Z"/><image class="cls-8" width="195" height="501" transform="translate(777.14 433.05) scale(0.24)" xlink:href="Asset%2033.png"/><path class="cls-9" d="M794.93,461.24h3.19a7.11,7.11,0,0,0,4.75-1.43,4.92,4.92,0,0,0,1.67-3.92c0-3.66-1.87-5.48-5.6-5.48a5.82,5.82,0,0,0-4.21,1.47,5.16,5.16,0,0,0-1.53,3.88h-5a7.59,7.59,0,0,1,3-6.18,13.73,13.73,0,0,1,15.42-.12,7.88,7.88,0,0,1,2.85,6.51,6.36,6.36,0,0,1-1.48,4,8.67,8.67,0,0,1-3.86,2.75q5.82,1.62,5.82,7.3a8.09,8.09,0,0,1-3.07,6.65,12.34,12.34,0,0,1-8,2.47,12.52,12.52,0,0,1-7.9-2.34,7.61,7.61,0,0,1-3-6.31h5a5.1,5.1,0,0,0,1.58,4,6.1,6.1,0,0,0,4.32,1.47,6.53,6.53,0,0,0,4.45-1.44,5.43,5.43,0,0,0,1.66-4.36q0-5.68-7.1-5.68h-3Z"/><image class="cls-8" width="195" height="501" transform="translate(681.38 364.65) scale(0.24)" xlink:href="Asset%2034.png"/><path class="cls-9" d="M715.89,410.22h-23v-2.85l11.73-11.77a25.79,25.79,0,0,0,3.69-4.47,7.19,7.19,0,0,0,1-3.69,5.45,5.45,0,0,0-1.53-4,5.36,5.36,0,0,0-4-1.54,6.74,6.74,0,0,0-4.85,1.63,6.25,6.25,0,0,0-1.71,4.72h-5a8.7,8.7,0,0,1,3.11-7q3.1-2.65,8.45-2.66,4.92,0,7.74,2.28a7.39,7.39,0,0,1,2.83,6.07q0,4.62-6.36,10.94L698.85,407h17Z"/><image class="cls-8" width="195" height="501" transform="translate(456.98 224.97) scale(0.24)" xlink:href="Asset%2035.png"/><path class="cls-9" d="M483.41,270.65h-5v-26.4l-8.65,2.93v-3.59l12.88-4.26h.8Z"/></g><g id="Logo"><g class="cls-10"><image width="1280" height="1280" transform="translate(700.71 466.6) scale(0.09)" xlink:href="../../../../Downloads/ORG%20-Blk_Ylw%20Logo.jpg"/></g></g></g></g></svg>